<svg xmlns="http://www.w3.org/2000/svg" viewBox="0 0 2560 480" width="2560" height="480"><style>tspan { white-space:pre }.shp0 { fill: #f9ed69 } .shp1 { opacity: 0.761;fill: #f9ed69 } .shp2 { opacity: 0;fill: #f9ed69 } </style><path class="shp0" d="M2003.49,242.68l-2003.48,244.3l2559.99,-5.5M0,480h2560c0,0 -552.22,-289.92 -552,-286" /><path class="shp1" d="M-268.59,500.71l2288.19,-327.9l-3.41,-23.81l-2288.19,327.9zM-144.47,431.57l2180.33,-304.72l-3.79,-17.09l-2180.33,304.72z" /><path class="shp2" d="M-268.59,500.71l2288.19,-327.9l-3.41,-23.81l-2288.19,327.9zM-268.59,500.71l2288.19,-327.9l-3.41,-23.81l-2288.19,327.9z" /><path class="shp1" d="M2006.4,166.58l2052.81,1062.61l11.05,-21.34l-2052.81,-1062.61z" /><path class="shp1" d="M2019,120.63l1822.06,958.83l12.42,-11.63l-1822.06,-958.83z" /><path class="shp1" d="M2030.91,88.56l1581.09,821.75l12.67,-1.58l-1581.09,-821.75zM2039.62,79.11l-2209.85,312.98l-12.94,10.13l2209.85,-312.98z" /><path class="shp1" d="M2019.91,83.56l1581.09,821.75l12.67,-1.58l-1581.09,-821.75zM2019.91,83.56l1581.09,821.75l12.67,-1.58l-1581.09,-821.75z" /></svg>